<svg xmlns="http://www.w3.org/2000/svg" xmlns:xlink="http://www.w3.org/1999/xlink" width="800" zoomAndPan="magnify" viewBox="0 0 600 419.999985" height="560" preserveAspectRatio="xMidYMid meet" version="1.0"><defs><clipPath id="id1"><path d="M 44 30 L 558 30 L 558 390.898438 L 44 390.898438 Z M 44 30 " clip-rule="nonzero"/></clipPath></defs><rect x="-60" width="720" fill="#ffffff" y="-41.999998" height="503.999982" fill-opacity="1"/><rect x="-60" width="720" fill="#ffffff" y="-41.999998" height="503.999982" fill-opacity="1"/><rect x="-60" width="720" fill="#070707" y="-41.999998" height="503.999982" fill-opacity="1"/><g clip-path="url(#id1)"><path fill="#e5e5e5" d="M 70.238281 30.296875 C 69.390625 30.285156 68.542969 30.316406 67.699219 30.386719 C 66.851562 30.460938 66.011719 30.574219 65.179688 30.726562 C 64.34375 30.882812 63.519531 31.078125 62.707031 31.316406 C 61.890625 31.554688 61.089844 31.832031 60.304688 32.148438 C 59.515625 32.464844 58.746094 32.820312 57.992188 33.210938 C 57.242188 33.605469 56.511719 34.035156 55.800781 34.5 C 55.089844 34.964844 54.40625 35.464844 53.746094 36 C 53.085938 36.53125 52.453125 37.097656 51.851562 37.691406 C 51.246094 38.289062 50.671875 38.914062 50.128906 39.566406 C 49.589844 40.21875 49.078125 40.898438 48.605469 41.601562 C 48.128906 42.304688 47.691406 43.03125 47.285156 43.777344 C 46.882812 44.523438 46.519531 45.289062 46.191406 46.074219 C 45.863281 46.855469 45.574219 47.652344 45.328125 48.464844 C 45.078125 49.277344 44.871094 50.101562 44.703125 50.933594 C 44.535156 51.765625 44.410156 52.605469 44.328125 53.449219 C 44.242188 54.292969 44.203125 55.140625 44.203125 55.988281 C 44.203125 56.839844 44.242188 57.6875 44.328125 58.53125 C 44.410156 59.375 44.535156 60.214844 44.703125 61.046875 C 44.871094 61.878906 45.078125 62.703125 45.328125 63.515625 C 45.574219 64.328125 45.863281 65.125 46.191406 65.90625 C 46.519531 66.691406 46.882812 67.457031 47.285156 68.203125 C 47.691406 68.949219 48.128906 69.675781 48.605469 70.378906 C 49.078125 71.082031 49.589844 71.761719 50.128906 72.414062 C 50.671875 73.066406 51.246094 73.691406 51.851562 74.289062 C 52.453125 74.882812 53.085938 75.449219 53.746094 75.980469 C 54.40625 76.515625 55.089844 77.015625 55.800781 77.480469 C 56.511719 77.945312 57.242188 78.375 57.992188 78.769531 C 58.746094 79.160156 59.515625 79.515625 60.304688 79.832031 C 61.089844 80.148438 61.890625 80.425781 62.707031 80.664062 C 63.519531 80.902344 64.34375 81.097656 65.179688 81.253906 C 66.011719 81.40625 66.851562 81.519531 67.699219 81.59375 C 68.542969 81.664062 69.390625 81.695312 70.238281 81.683594 L 532.328125 81.683594 C 533.175781 81.695312 534.023438 81.664062 534.867188 81.59375 C 535.714844 81.519531 536.554688 81.40625 537.386719 81.253906 C 538.222656 81.097656 539.046875 80.902344 539.863281 80.664062 C 540.675781 80.425781 541.476562 80.148438 542.265625 79.832031 C 543.050781 79.515625 543.820312 79.160156 544.574219 78.769531 C 545.324219 78.375 546.054688 77.945312 546.765625 77.480469 C 547.476562 77.015625 548.160156 76.515625 548.820312 75.980469 C 549.480469 75.449219 550.113281 74.882812 550.71875 74.289062 C 551.320312 73.691406 551.894531 73.066406 552.4375 72.414062 C 552.980469 71.761719 553.488281 71.082031 553.960938 70.378906 C 554.4375 69.675781 554.875 68.949219 555.28125 68.203125 C 555.683594 67.457031 556.046875 66.691406 556.375 65.90625 C 556.703125 65.125 556.992188 64.328125 557.238281 63.515625 C 557.488281 62.703125 557.695312 61.878906 557.863281 61.046875 C 558.03125 60.214844 558.15625 59.375 558.238281 58.53125 C 558.324219 57.6875 558.367188 56.839844 558.367188 55.988281 C 558.367188 55.140625 558.324219 54.292969 558.238281 53.449219 C 558.15625 52.605469 558.03125 51.765625 557.863281 50.933594 C 557.695312 50.101562 557.488281 49.277344 557.238281 48.464844 C 556.992188 47.652344 556.703125 46.855469 556.375 46.074219 C 556.046875 45.289062 555.683594 44.523438 555.28125 43.777344 C 554.875 43.03125 554.4375 42.304688 553.960938 41.601562 C 553.488281 40.898438 552.980469 40.21875 552.4375 39.566406 C 551.894531 38.914062 551.320312 38.289062 550.71875 37.691406 C 550.113281 37.097656 549.480469 36.53125 548.820312 36 C 548.160156 35.464844 547.476562 34.964844 546.765625 34.5 C 546.054688 34.035156 545.324219 33.605469 544.574219 33.210938 C 543.820312 32.820312 543.050781 32.464844 542.265625 32.148438 C 541.476562 31.832031 540.675781 31.554688 539.863281 31.316406 C 539.046875 31.078125 538.222656 30.882812 537.386719 30.726562 C 536.554688 30.574219 535.714844 30.460938 534.867188 30.386719 C 534.023438 30.316406 533.175781 30.285156 532.328125 30.296875 Z M 70.238281 184.457031 C 69.390625 184.445312 68.542969 184.476562 67.699219 184.546875 C 66.851562 184.617188 66.011719 184.734375 65.179688 184.886719 C 64.34375 185.042969 63.519531 185.238281 62.707031 185.476562 C 61.890625 185.714844 61.089844 185.992188 60.304688 186.308594 C 59.515625 186.625 58.746094 186.980469 57.992188 187.371094 C 57.242188 187.765625 56.511719 188.195312 55.800781 188.660156 C 55.09375 189.125 54.40625 189.625 53.746094 190.15625 C 53.085938 190.691406 52.453125 191.257812 51.851562 191.851562 C 51.246094 192.449219 50.671875 193.074219 50.132812 193.726562 C 49.589844 194.378906 49.078125 195.058594 48.605469 195.761719 C 48.128906 196.464844 47.691406 197.191406 47.289062 197.9375 C 46.882812 198.683594 46.519531 199.449219 46.191406 200.234375 C 45.863281 201.015625 45.574219 201.8125 45.328125 202.625 C 45.078125 203.4375 44.871094 204.261719 44.703125 205.09375 C 44.539062 205.925781 44.410156 206.765625 44.328125 207.609375 C 44.242188 208.453125 44.203125 209.300781 44.203125 210.148438 C 44.203125 211 44.242188 211.847656 44.328125 212.691406 C 44.410156 213.535156 44.539062 214.375 44.703125 215.207031 C 44.871094 216.039062 45.078125 216.863281 45.328125 217.675781 C 45.574219 218.484375 45.863281 219.285156 46.191406 220.066406 C 46.519531 220.851562 46.882812 221.617188 47.289062 222.363281 C 47.691406 223.109375 48.128906 223.835938 48.605469 224.539062 C 49.078125 225.242188 49.589844 225.921875 50.132812 226.574219 C 50.671875 227.226562 51.246094 227.851562 51.851562 228.449219 C 52.453125 229.042969 53.085938 229.609375 53.746094 230.140625 C 54.40625 230.675781 55.09375 231.175781 55.800781 231.640625 C 56.511719 232.105469 57.242188 232.535156 57.992188 232.929688 C 58.746094 233.320312 59.515625 233.675781 60.304688 233.992188 C 61.089844 234.308594 61.890625 234.585938 62.707031 234.824219 C 63.519531 235.058594 64.34375 235.257812 65.179688 235.410156 C 66.011719 235.566406 66.851562 235.679688 67.699219 235.753906 C 68.542969 235.824219 69.390625 235.855469 70.238281 235.84375 L 532.328125 235.84375 C 533.175781 235.855469 534.023438 235.824219 534.867188 235.753906 C 535.714844 235.679688 536.554688 235.566406 537.386719 235.410156 C 538.222656 235.257812 539.046875 235.058594 539.859375 234.824219 C 540.675781 234.585938 541.476562 234.308594 542.265625 233.992188 C 543.050781 233.675781 543.820312 233.320312 544.574219 232.929688 C 545.324219 232.535156 546.054688 232.105469 546.765625 231.640625 C 547.476562 231.175781 548.160156 230.675781 548.820312 230.140625 C 549.480469 229.609375 550.113281 229.042969 550.714844 228.449219 C 551.320312 227.851562 551.894531 227.226562 552.4375 226.574219 C 552.976562 225.921875 553.488281 225.242188 553.960938 224.539062 C 554.4375 223.835938 554.875 223.109375 555.28125 222.363281 C 555.683594 221.617188 556.046875 220.851562 556.375 220.066406 C 556.703125 219.285156 556.992188 218.484375 557.238281 217.675781 C 557.488281 216.863281 557.695312 216.039062 557.863281 215.207031 C 558.03125 214.375 558.15625 213.535156 558.238281 212.691406 C 558.324219 211.847656 558.363281 211 558.363281 210.148438 C 558.363281 209.300781 558.324219 208.453125 558.238281 207.609375 C 558.15625 206.765625 558.03125 205.925781 557.863281 205.09375 C 557.695312 204.261719 557.488281 203.4375 557.238281 202.625 C 556.992188 201.8125 556.703125 201.015625 556.375 200.234375 C 556.046875 199.449219 555.683594 198.683594 555.28125 197.9375 C 554.875 197.191406 554.4375 196.464844 553.960938 195.761719 C 553.488281 195.058594 552.976562 194.378906 552.4375 193.726562 C 551.894531 193.074219 551.320312 192.449219 550.714844 191.851562 C 550.113281 191.257812 549.480469 190.691406 548.820312 190.15625 C 548.160156 189.625 547.476562 189.125 546.765625 188.660156 C 546.054688 188.195312 545.324219 187.765625 544.574219 187.371094 C 543.820312 186.980469 543.050781 186.625 542.265625 186.308594 C 541.476562 185.992188 540.675781 185.714844 539.859375 185.476562 C 539.046875 185.238281 538.222656 185.042969 537.386719 184.886719 C 536.554688 184.734375 535.714844 184.617188 534.867188 184.546875 C 534.023438 184.476562 533.175781 184.445312 532.328125 184.457031 Z M 70.238281 338.617188 C 69.390625 338.605469 68.542969 338.632812 67.699219 338.707031 C 66.851562 338.777344 66.011719 338.890625 65.179688 339.046875 C 64.34375 339.203125 63.519531 339.398438 62.707031 339.636719 C 61.890625 339.875 61.089844 340.148438 60.300781 340.46875 C 59.515625 340.785156 58.746094 341.136719 57.992188 341.53125 C 57.242188 341.925781 56.511719 342.351562 55.800781 342.820312 C 55.089844 343.285156 54.40625 343.785156 53.746094 344.316406 C 53.085938 344.851562 52.453125 345.414062 51.851562 346.011719 C 51.246094 346.609375 50.671875 347.234375 50.128906 347.886719 C 49.589844 348.539062 49.078125 349.21875 48.605469 349.921875 C 48.128906 350.625 47.691406 351.351562 47.285156 352.097656 C 46.882812 352.84375 46.519531 353.609375 46.191406 354.390625 C 45.863281 355.175781 45.574219 355.972656 45.328125 356.785156 C 45.078125 357.597656 44.871094 358.417969 44.703125 359.253906 C 44.535156 360.085938 44.410156 360.921875 44.328125 361.769531 C 44.242188 362.613281 44.203125 363.460938 44.203125 364.308594 C 44.203125 365.160156 44.242188 366.007812 44.328125 366.851562 C 44.410156 367.695312 44.535156 368.535156 44.703125 369.367188 C 44.871094 370.199219 45.078125 371.023438 45.328125 371.835938 C 45.574219 372.644531 45.863281 373.445312 46.191406 374.226562 C 46.519531 375.011719 46.882812 375.777344 47.285156 376.523438 C 47.691406 377.269531 48.128906 377.996094 48.605469 378.699219 C 49.078125 379.402344 49.589844 380.082031 50.128906 380.734375 C 50.671875 381.386719 51.246094 382.011719 51.851562 382.609375 C 52.453125 383.203125 53.085938 383.769531 53.746094 384.300781 C 54.40625 384.835938 55.089844 385.335938 55.800781 385.800781 C 56.511719 386.265625 57.242188 386.695312 57.992188 387.089844 C 58.746094 387.480469 59.515625 387.835938 60.300781 388.152344 C 61.089844 388.46875 61.890625 388.746094 62.707031 388.984375 C 63.519531 389.21875 64.34375 389.417969 65.179688 389.570312 C 66.011719 389.726562 66.851562 389.839844 67.699219 389.914062 C 68.542969 389.984375 69.390625 390.015625 70.238281 390.003906 L 532.328125 390.003906 C 533.175781 390.015625 534.023438 389.984375 534.867188 389.914062 C 535.714844 389.839844 536.554688 389.726562 537.386719 389.570312 C 538.222656 389.417969 539.046875 389.21875 539.863281 388.984375 C 540.675781 388.746094 541.476562 388.46875 542.265625 388.152344 C 543.050781 387.835938 543.820312 387.480469 544.574219 387.089844 C 545.324219 386.695312 546.054688 386.265625 546.765625 385.800781 C 547.476562 385.335938 548.160156 384.835938 548.820312 384.300781 C 549.480469 383.769531 550.113281 383.203125 550.71875 382.609375 C 551.320312 382.011719 551.894531 381.386719 552.4375 380.734375 C 552.980469 380.082031 553.488281 379.402344 553.964844 378.699219 C 554.4375 377.996094 554.878906 377.269531 555.28125 376.523438 C 555.683594 375.777344 556.050781 375.011719 556.375 374.226562 C 556.703125 373.445312 556.992188 372.644531 557.242188 371.835938 C 557.488281 371.023438 557.695312 370.199219 557.863281 369.367188 C 558.03125 368.535156 558.15625 367.695312 558.238281 366.851562 C 558.324219 366.007812 558.367188 365.160156 558.367188 364.308594 C 558.367188 363.460938 558.324219 362.613281 558.238281 361.769531 C 558.15625 360.921875 558.03125 360.085938 557.863281 359.253906 C 557.695312 358.417969 557.488281 357.597656 557.242188 356.785156 C 556.992188 355.972656 556.703125 355.175781 556.375 354.390625 C 556.050781 353.609375 555.683594 352.84375 555.28125 352.097656 C 554.878906 351.351562 554.4375 350.625 553.964844 349.921875 C 553.488281 349.21875 552.980469 348.539062 552.4375 347.886719 C 551.894531 347.234375 551.320312 346.609375 550.71875 346.011719 C 550.113281 345.414062 549.480469 344.851562 548.820312 344.316406 C 548.160156 343.785156 547.476562 343.285156 546.765625 342.820312 C 546.054688 342.351562 545.324219 341.925781 544.574219 341.53125 C 543.820312 341.136719 543.050781 340.785156 542.265625 340.46875 C 541.476562 340.148438 540.675781 339.875 539.863281 339.636719 C 539.046875 339.398438 538.222656 339.203125 537.386719 339.046875 C 536.554688 338.890625 535.714844 338.777344 534.867188 338.707031 C 534.023438 338.632812 533.175781 338.605469 532.328125 338.617188 Z M 70.238281 338.617188 " fill-opacity="1" fill-rule="nonzero"/></g></svg>